<?xml version="1.0" encoding="utf-8"?>
<!-- Generator: Adobe Illustrator 16.0.0, SVG Export Plug-In . SVG Version: 6.00 Build 0)  -->
<!DOCTYPE svg PUBLIC "-//W3C//DTD SVG 1.1//EN" "http://www.w3.org/Graphics/SVG/1.1/DTD/svg11.dtd">
<svg version="1.1" id="Layer_1" xmlns="http://www.w3.org/2000/svg" xmlns:xlink="http://www.w3.org/1999/xlink" x="0px" y="0px"
	 width="400px" height="400px" viewBox="0 0 400 400" enable-background="new 0 0 400 400" xml:space="preserve">
<g>
	<g>
		<g>
			<path d="M357.856,261.026v-67.886c0-10.886-8.855-19.74-19.741-19.74h-50.673v-48.748H260.36V99.139h30.31l1.847-6.46
				c0.089-0.314,9.539-31.454,29.347-31.454h8.909V0.076H42.141v61.148h66.438l5.092,37.915h42.212v25.512h-27.081v48.747H78.134
				c-10.889,0-19.742,8.855-19.742,19.741v206.784h299.467V288.099h-17.82v94.008H76.207V193.141c0-1.041,0.881-1.923,1.924-1.923
				h259.982c1.041,0,1.92,0.882,1.92,1.923v45.255H99.795v17.818h240.242v4.814L357.856,261.026L357.856,261.026z M59.958,43.407
				V17.893h0.001h42.864l3.38,25.514L59.958,43.407L59.958,43.407z M129.257,81.321l-8.459-63.427h192.158v26.578
				c-20.116,4.963-30.954,26.005-35.292,36.849H129.257L129.257,81.321z M242.545,99.139v25.512H173.7V99.139h66.921H242.545z
				 M269.626,173.398H146.618V142.47h123.008V173.398L269.626,173.398z"/>
		</g>
	</g>
	<g>
		<g>
			<rect x="143.132" y="37.991" width="86.66" height="17.817"/>
		</g>
	</g>
	<g>
		<g>
			<rect x="94.381" y="204.461" width="32.497" height="17.821"/>
		</g>
	</g>
	<g>
		<g>
			<rect x="289.369" y="204.461" width="32.496" height="17.821"/>
		</g>
	</g>
	<g>
		<g>
			<rect x="289.369" y="327.942" width="32.496" height="17.82"/>
		</g>
	</g>
	<g>
		<g>
			<rect x="94.381" y="327.942" width="32.497" height="17.82"/>
		</g>
	</g>
	<g>
		<g>
			<rect x="143.132" y="327.942" width="129.99" height="17.82"/>
		</g>
	</g>
</g>
</svg>
