<?xml version="1.0" encoding="utf-8"?>
<!-- Generator: Adobe Illustrator 16.0.0, SVG Export Plug-In . SVG Version: 6.00 Build 0)  -->
<!DOCTYPE svg PUBLIC "-//W3C//DTD SVG 1.1//EN" "http://www.w3.org/Graphics/SVG/1.1/DTD/svg11.dtd">
<svg version="1.1" id="Layer_1" xmlns="http://www.w3.org/2000/svg" xmlns:xlink="http://www.w3.org/1999/xlink" x="0px" y="0px"
	 width="400px" height="400px" viewBox="0 0 400 400" enable-background="new 0 0 400 400" xml:space="preserve">
<path d="M213.171,258.811c0,3.82-3.096,6.916-6.916,6.916h-34.031c-3.818,0-6.915-3.096-6.915-6.916
	c0-3.817,3.097-6.914,6.915-6.914h34.031C210.075,251.896,213.171,254.991,213.171,258.811z M138.191,251.896H104.16
	c-3.819,0-6.916,3.097-6.916,6.914c0,3.82,3.097,6.916,6.916,6.916h34.031c3.819,0,6.916-3.096,6.916-6.916
	C145.107,254.993,142.012,251.896,138.191,251.896z M274.32,251.896h-34.032c-3.819,0-6.915,3.097-6.915,6.914
	c0,3.82,3.096,6.916,6.915,6.916h34.051c3.818,0,6.915-3.096,6.915-6.916c0-3.817-3.097-6.914-6.915-6.914H274.32z M104.229,231.962
	c-13.253-0.015-23.984-10.77-23.97-24.021c0.015-13.253,10.77-23.985,24.021-23.972c13.242,0.015,23.971,10.754,23.971,23.998
	C128.232,221.221,117.484,231.957,104.229,231.962z M104.229,218.131c5.614-0.005,10.161-4.558,10.157-10.174
	c-0.005-5.614-4.56-10.16-10.175-10.155c-5.61,0.005-10.156,4.553-10.156,10.165C94.061,213.581,98.614,218.131,104.229,218.131z
	 M298.248,190.886v34.039c0,3.82-3.098,6.917-6.916,6.917h-68.063c-3.818,0-6.916-3.097-6.916-6.917v-34.039
	c0-3.819,3.098-6.916,6.916-6.916h68.063C295.15,183.97,298.248,187.066,298.248,190.886L298.248,190.886z M284.416,197.802h-54.233
	v20.208h54.233V197.802L284.416,197.802z M400.343,105.811v204.191c0.251,13.216-10.26,24.135-23.477,24.387
	c-13.217,0.251-24.136-10.26-24.386-23.478c-0.008-0.302-0.008-0.607,0-0.909v-27.16h-20.944
	c-2.661,10.039-11.736,17.037-22.12,17.055H69.109c-12.627-0.014-22.858-10.246-22.873-22.872v-25.067H31.273v30.514
	c0,3.818-3.096,6.915-6.916,6.915H6.568c-3.818,0-6.916-3.097-6.916-6.915V133.212c0-3.818,3.098-6.915,6.916-6.915h17.789
	c3.819,0,6.916,3.096,6.916,6.915v30.514h14.92v-24.938c0.019-12.624,10.249-22.85,22.872-22.863h18.422v-13.762h-6.338
	c-3.818,0-6.915-3.096-6.915-6.915V72.522c0-3.818,3.096-6.916,6.915-6.916h46.022c3.818,0,6.915,3.097,6.915,6.916v22.726
	c0,3.818-3.097,6.915-6.915,6.915h-6.344v13.762h51.743v-13.762h-6.336c-3.819,0-6.916-3.097-6.916-6.915V72.522
	c0-3.818,3.097-6.916,6.916-6.916h46.013c3.818,0,6.915,3.097,6.915,6.916v22.726c0,3.818-3.097,6.915-6.915,6.915h-6.337v13.762
	h51.744v-13.762h-6.346c-3.819,0-6.915-3.097-6.915-6.915V72.522c0-3.818,3.096-6.916,6.915-6.916h46.022
	c3.817,0,6.916,3.097,6.916,6.916v22.726c0,3.818-3.099,6.915-6.916,6.915h-6.337v13.762h18.422
	c10.368,0.013,19.434,6.991,22.103,17.011h20.963v-27.125c0.251-13.217,11.167-23.729,24.386-23.477
	C389.729,82.578,400.098,92.946,400.343,105.811z M366.312,251.999h20.201v-20.192h-20.201V251.999z M386.511,217.977v-20.185
	H366.31v20.185H386.511z M386.511,183.961v-20.193H366.31v20.193H386.511z M386.511,149.938v-20.184H366.31v20.191L386.511,149.938z
	 M366.312,286.022h20.201v-20.191h-20.201V286.022z M366.312,105.811v10.112h20.201v-10.112c-0.165-5.578-4.819-9.969-10.396-9.806
	C370.768,96.162,366.467,100.461,366.312,105.811z M258.26,88.333h32.155v-8.896h-32.191L258.26,88.333z M271.484,115.925h5.68
	v-13.762h-5.68V115.925z M173.149,88.333h32.183v-8.896h-32.183V88.333L173.149,88.333z M186.401,115.925h5.68v-13.762h-5.68
	V115.925z M88.065,88.333h32.191v-8.896H88.065V88.333z M101.316,115.925h5.68v-13.762h-5.68V115.925z M60.023,138.787v11.151
	h258.398v-11.151c-0.01-4.975-4.032-9.009-9.006-9.032H69.109c-4.999-0.021-9.066,4.017-9.085,9.015
	C60.023,138.776,60.023,138.782,60.023,138.787z M17.442,245.049V140.128h-3.958v135.435h3.958V245.049z M46.193,238.134v-60.612
	h-14.92v60.612H46.193z M318.482,163.794H60.023v113.238c0.005,4.991,4.051,9.037,9.042,9.043h240.307
	c4.999,0,9.049-4.053,9.049-9.051l0,0L318.482,163.794z M352.48,269.011V146.757h-20.228v122.254H352.48z M386.511,310.001v-10.148
	H366.31v10.148c-0.162,5.577,4.226,10.232,9.806,10.396c5.577,0.164,10.232-4.226,10.396-9.806
	C386.518,310.396,386.518,310.198,386.511,310.001z"/>
</svg>
