<?xml version="1.0" encoding="utf-8"?>
<!-- Generator: Adobe Illustrator 16.0.0, SVG Export Plug-In . SVG Version: 6.00 Build 0)  -->
<!DOCTYPE svg PUBLIC "-//W3C//DTD SVG 1.1//EN" "http://www.w3.org/Graphics/SVG/1.1/DTD/svg11.dtd">
<svg version="1.1" id="Layer_1" xmlns="http://www.w3.org/2000/svg" xmlns:xlink="http://www.w3.org/1999/xlink" x="0px" y="0px"
	 width="400px" height="400px" viewBox="0 0 400 400" enable-background="new 0 0 400 400" xml:space="preserve">
<g>
	<g>
		<path d="M200,81.741c-110.909,0-200.667,89.747-200.667,200.664c0,4.82,3.906,8.728,8.725,8.728c3.87,0,154.234,0,157.168,0
			c3.906,15.563,18.014,27.126,34.774,27.126s30.868-11.563,34.775-27.126c2.907,0,153.184,0,157.167,0
			c4.817,0,8.725-3.906,8.725-8.728C400.665,171.501,310.918,81.741,200,81.741z M208.722,99.393L208.722,99.393
			c42.769,1.991,82.869,18.601,114.517,47.435c-15.503,15.503-15.284,15.285-30.667,30.666c-23.3-20.627-52.62-32.809-83.852-34.731
			L208.722,99.393L208.722,99.393z M191.272,99.393v43.369h0.001c-30.737,1.895-60.091,13.723-83.85,34.731
			c-15.359-15.358-15.15-15.151-30.667-30.666C108.407,117.992,148.505,101.384,191.272,99.393z M16.985,273.684
			c1.991-42.771,18.6-82.868,47.434-114.516l30.667,30.665c-20.027,22.636-32.762,51.705-34.731,83.851H16.985L16.985,273.684z
			 M200,300.811c-10.148,0-18.404-8.256-18.404-18.405c0-10.147,8.256-18.403,18.404-18.403c9.998,0,18.401,8.28,18.401,18.403
			C218.401,292.556,210.147,300.811,200,300.811z M228.521,260.714c-2.056-2.698-4.222-4.812-6.832-6.829l22.394-15.564
			L228.521,260.714z M240.76,273.684l45.313-65.208c5.526-7.951-4.202-17.664-12.144-12.143l-72.321,50.258
			c-17.36-0.768-32.32,10.93-36.39,27.093H77.845C82.35,209.665,135.544,159.946,200,159.946
			c64.688-0.001,117.672,50.056,122.151,113.737H240.76z M339.644,273.684c-1.901-31.157-14.041-60.45-34.732-83.853l30.669-30.666
			c28.833,31.65,45.441,71.747,47.433,114.517L339.644,273.684L339.644,273.684z"/>
	</g>
</g>
</svg>
