<?xml version="1.0" encoding="utf-8"?>
<!-- Generator: Adobe Illustrator 16.0.0, SVG Export Plug-In . SVG Version: 6.00 Build 0)  -->
<!DOCTYPE svg PUBLIC "-//W3C//DTD SVG 1.1//EN" "http://www.w3.org/Graphics/SVG/1.1/DTD/svg11.dtd">
<svg version="1.1" id="Layer_1" xmlns="http://www.w3.org/2000/svg" xmlns:xlink="http://www.w3.org/1999/xlink" x="0px" y="0px"
	 width="400px" height="400px" viewBox="0 0 400 400" enable-background="new 0 0 400 400" xml:space="preserve">
<path d="M53.15,146.599c0,7.374-5.978,13.351-13.351,13.351s-13.349-5.977-13.349-13.351c0-7.373,5.976-13.35,13.349-13.35
	C47.174,133.249,53.15,139.226,53.15,146.599z M99.875,293.449c-8.944,0-16.501,6.035-19.037,14.191l-35.458,5.914
	c-3.23,0.533-5.58,3.337-5.58,6.595V360.2c0,3.269,2.35,6.061,5.58,6.595l35.458,5.913c2.536,8.144,10.092,14.192,19.037,14.192
	h53.4c8.945,0,16.501-6.036,19.037-14.192l35.457-5.913c3.23-0.534,5.58-3.339,5.58-6.595v-40.051c0-3.271-2.35-6.062-5.58-6.596
	l-35.457-5.926c-2.537-8.131-10.092-14.179-19.037-14.179H99.875L99.875,293.449z M99.875,306.799h53.4
	c3.818,0,6.675,2.857,6.675,6.677v53.398c0,3.819-2.858,6.675-6.675,6.675h-53.4c-3.818,0-6.674-2.855-6.674-6.675v-53.398
	C93.202,309.655,96.057,306.799,99.875,306.799z M79.851,321.378v37.592l-26.7-4.431v-28.729L79.851,321.378z M173.3,321.378
	l26.698,4.432v28.729L173.3,358.97V321.378L173.3,321.378z M73.175,39.8c-3.683,0-6.674,2.99-6.674,6.675v200.25
	c0,3.685,2.991,6.677,6.674,6.677h146.849c8.945,0,8.734-13.351,0-13.351H79.851V53.149h240.298v60.074
	c0,8.811,13.352,8.944,13.352,0v-66.75c0-3.685-2.988-6.675-6.676-6.675L73.175,39.8L73.175,39.8z M19.775,13.1
	C8.802,13.1-0.25,22.15-0.25,33.125v226.95c0,10.974,9.052,20.022,20.025,20.022h200.248c8.945,0,8.813-13.348,0-13.348H19.775
	c-3.818,0-6.675-2.859-6.675-6.675V33.125c0-3.819,2.857-6.676,6.675-6.676h320.4c3.818,0,6.674,2.856,6.674,6.676v80.101
	c0,9.037,13.35,8.811,13.35,0V33.125c0-10.975-9.053-20.025-20.023-20.025H19.775z M300.125,159.949h40.049
	c3.699,0,6.674,2.977,6.674,6.674c0,3.698-2.975,6.675-6.674,6.675h-40.049c-3.697,0-6.676-2.977-6.676-6.675
	C293.449,162.926,296.428,159.949,300.125,159.949z M260.074,133.25c-10.973,0-20.025,9.051-20.025,20.024v213.599
	c0,10.975,9.053,20.026,20.025,20.026h120.148c10.975,0,20.027-9.052,20.027-20.026V153.274c0-10.974-9.053-20.024-20.027-20.024
	H260.074z M260.074,146.599h120.148c3.822,0,6.678,2.857,6.678,6.676v213.598c0,3.819-2.855,6.676-6.678,6.676H260.074
	c-3.818,0-6.674-2.856-6.674-6.676V153.274C253.4,149.456,256.256,146.599,260.074,146.599z M320.148,333.499
	c7.396,0,13.352,5.953,13.352,13.349s-5.955,13.351-13.352,13.351c-7.395,0-13.348-5.955-13.348-13.351
	S312.754,333.499,320.148,333.499z"/>
</svg>
