<?xml version="1.0" encoding="utf-8"?>
<!-- Generator: Adobe Illustrator 16.0.0, SVG Export Plug-In . SVG Version: 6.00 Build 0)  -->
<!DOCTYPE svg PUBLIC "-//W3C//DTD SVG 1.1//EN" "http://www.w3.org/Graphics/SVG/1.1/DTD/svg11.dtd">
<svg version="1.1" id="Layer_1" xmlns="http://www.w3.org/2000/svg" xmlns:xlink="http://www.w3.org/1999/xlink" x="0px" y="0px"
	 width="400px" height="400px" viewBox="0 0 400 400" enable-background="new 0 0 400 400" xml:space="preserve">
<path d="M375.101,38.186H24.899c-14.007,0-25.36,11.354-25.36,25.361v291.022c0,4,3.245,7.245,7.246,7.245h86.042h0.263h38.302
	h0.327h261.496c4.002,0,7.246-3.245,7.246-7.245V63.547C400.461,49.541,389.107,38.186,375.101,38.186z M91.315,345.53v-34.326
	c0-1.001,0.811-1.811,1.812-1.811h13.45l0,0c-0.399,0.606-0.762,1.222-1.114,1.855c-0.063,0.1-0.118,0.199-0.172,0.3
	c-0.335,0.615-0.653,1.231-0.906,1.865l-0.164,0.354c-0.298,0.644-0.569,1.286-0.823,1.946c0,0.09-0.073,0.182-0.1,0.273
	c-0.254,0.67-0.489,1.349-0.698,2.045c0,0,0,0.064,0,0.101c-0.208,0.697-0.389,1.413-0.562,2.13c0,0.107-0.054,0.226-0.072,0.334
	c-0.154,0.697-0.281,1.396-0.39,2.102c0,0.136-0.045,0.262-0.063,0.398c-0.1,0.715-0.182,1.432-0.235,2.156v0.318
	c-0.046,0.769-0.083,1.53-0.083,2.307c0,0.509,0,1.006,0,1.506v0.479c0,0.345,0,0.68,0.073,1.024l0.054,0.534
	c0,0.336,0.082,0.662,0.119,0.987c0,0.162,0.055,0.335,0.073,0.508l0.189,1.103c0,0.118,0,0.235,0.063,0.346
	c0.1,0.48,0.2,0.959,0.317,1.431c0,0.117,0.054,0.227,0.09,0.335c0.09,0.362,0.182,0.725,0.29,1.077c0,0.163,0.1,0.326,0.146,0.491
	c0.09,0.308,0.189,0.606,0.299,0.904c0.055,0.164,0.109,0.336,0.172,0.498c0.109,0.309,0.227,0.615,0.344,0.905
	c0.056,0.146,0.109,0.3,0.173,0.445c0.172,0.426,0.353,0.86,0.543,1.286l0,0c0.2,0.435,0.408,0.86,0.625,1.286l0.217,0.417
	l0.462,0.853l0.271,0.463c0.154,0.271,0.317,0.543,0.48,0.806l0.271,0.435c0.19,0.3,0.38,0.589,0.58,0.906l0.218,0.316l0,0H93
	C92.095,347.154,91.376,346.435,91.315,345.53z M135.069,347.343h-0.281c-0.471,0-0.887-0.019-1.25-0.054h-0.163
	c-0.334,0-0.67-0.082-0.997-0.128c-0.326-0.046-0.598-0.064-0.906-0.117c-0.309-0.055-0.606-0.146-0.906-0.219
	c-0.3-0.072-0.58-0.117-0.906-0.198c-0.327-0.083-0.58-0.2-0.906-0.29s-0.561-0.182-0.833-0.29
	c-0.272-0.107-0.553-0.245-0.834-0.361l-0.806-0.362c-0.271-0.136-0.535-0.3-0.797-0.445c-0.263-0.146-0.517-0.28-0.762-0.436
	c-0.244-0.153-0.498-0.334-0.742-0.506s-0.489-0.316-0.725-0.497s-0.462-0.38-0.697-0.579c-0.235-0.201-0.453-0.354-0.662-0.554
	c-0.209-0.2-0.435-0.426-0.652-0.643c-0.218-0.219-0.417-0.399-0.607-0.608c-0.19-0.208-0.399-0.47-0.598-0.714
	c-0.199-0.245-0.372-0.417-0.544-0.643c-0.172-0.227-0.354-0.507-0.535-0.771c-0.182-0.262-0.326-0.445-0.471-0.678
	c-0.145-0.236-0.308-0.544-0.462-0.808c-0.155-0.263-0.291-0.49-0.426-0.742c-0.135-0.254-0.263-0.59-0.398-0.907
	c-0.137-0.315-0.236-0.497-0.335-0.741c-0.1-0.246-0.227-0.644-0.335-0.971c-0.108-0.324-0.181-0.479-0.254-0.733
	c-0.072-0.254-0.172-0.688-0.253-1.033c-0.082-0.344-0.135-0.48-0.181-0.725c-0.073-0.389-0.118-0.787-0.172-1.177
	c0-0.219-0.073-0.426-0.09-0.643c-0.063-0.616-0.093-1.237-0.091-1.857c0.005-8.788,5.905-16.482,14.392-18.767
	c1.642-0.441,3.336-0.665,5.036-0.661c10.728,0.208,19.255,9.074,19.047,19.801c-0.202,10.403-8.564,18.799-18.965,19.046
	L135.069,347.343z M162.766,347.343c10.755-15.301,7.071-36.424-8.229-47.18c-7.931-5.574-17.87-7.484-27.301-5.243H93.126
	c-9.004,0-16.303,7.299-16.303,16.302v34.326c-0.001,0.605,0.035,1.21,0.108,1.812H50.477V187.955h122.959V347.36L162.766,347.343z
	 M343.628,260.394H226.564V231.41h117.063V260.394L343.628,260.394z M226.564,274.886h117.063v28.982H226.564V274.886z
	 M343.628,216.92H226.564v-28.982h117.063V216.92L343.628,216.92z M226.564,347.343v-28.984h117.063v28.984H226.564z
	 M385.97,347.343h-27.85V180.691c0-4.002-3.247-7.247-7.247-7.247H219.319c-4.002,0-7.246,3.245-7.246,7.247v166.65h-24.146v-166.65
	c0-4.002-3.243-7.247-7.245-7.247H43.231c-4.001,0-7.246,3.245-7.246,7.247v166.65H14.031V63.547
	c0-6.003,4.866-10.868,10.869-10.868h350.202c6.001,0,10.869,4.866,10.869,10.868L385.97,347.343L385.97,347.343z M354.578,76.833
	h-77.284c-1.923,0-3.767,0.762-5.128,2.12l-57.965,57.965c-2.831,2.828-2.833,7.415-0.006,10.247
	c1.362,1.364,3.214,2.129,5.142,2.125h135.241c4,0,7.246-3.244,7.246-7.245V84.079C361.824,80.077,358.579,76.833,354.578,76.833z
	 M347.332,134.798H236.835l43.476-43.474h67.021V134.798z M253.21,81.298c-1.121-2.707-3.762-4.474-6.691-4.474H43.231
	c-4.001,0-7.246,3.245-7.246,7.245v57.966c0,4,3.245,7.245,7.246,7.245h145.32c1.922,0.002,3.767-0.762,5.127-2.119l57.965-57.965
	C253.716,87.123,254.333,84.005,253.21,81.298z M185.554,134.798H50.477V91.324h178.551L185.554,134.798z"/>
</svg>
