<?xml version="1.0" encoding="utf-8"?>
<!-- Generator: Adobe Illustrator 16.0.0, SVG Export Plug-In . SVG Version: 6.00 Build 0)  -->
<!DOCTYPE svg PUBLIC "-//W3C//DTD SVG 1.1//EN" "http://www.w3.org/Graphics/SVG/1.1/DTD/svg11.dtd">
<svg version="1.1" id="Layer_1" xmlns="http://www.w3.org/2000/svg" xmlns:xlink="http://www.w3.org/1999/xlink" x="0px" y="0px"
	 width="400px" height="400px" viewBox="0 0 400 400" enable-background="new 0 0 400 400" xml:space="preserve">
<g>
	<path d="M323.809,287.651l24.613-4.923v-62.207l-24.613-4.924c-2.633-9.072-6.246-17.805-10.781-26.058l13.92-20.876
		l-43.992-43.984l-20.875,13.919c-8.242-4.537-16.979-8.15-26.053-10.784l-4.924-24.612h-62.207l-4.918,24.612
		c-9.001,2.614-17.661,6.183-25.838,10.661l-21.134-13.752l-43.907,43.9l13.751,21.146c-4.439,8.105-7.982,16.682-10.589,25.587
		l-24.683,5.221v62.085l24.683,5.228c2.601,8.904,6.151,17.481,10.591,25.587l-13.751,21.147l43.907,43.898l21.133-13.752
		c8.106,4.433,16.682,7.982,25.587,10.59l5.228,24.685h62.085l5.234-24.685c8.982-2.626,17.629-6.221,25.799-10.712l20.875,13.919
		l43.992-43.983l-13.92-20.876C317.563,305.456,321.17,296.719,323.809,287.651z M310.336,332.94l-29.02,29.026l-18.773-12.512
		l-3.49,2.071c-9.307,5.51-19.367,9.691-29.898,12.422l-3.863,0.999l-4.713,22.192h-41.163l-4.705-22.198l-3.866-1.001
		c-10.442-2.703-20.417-6.833-29.659-12.272l-3.446-2.026l-19.011,12.362l-29.11-29.107l12.365-19.019l-2.027-3.445
		c-5.44-9.235-9.563-19.211-12.267-29.652l-0.994-3.874l-22.212-4.702v-41.165l22.206-4.704l0.993-3.872
		c2.704-10.441,6.833-20.416,12.268-29.651l2.026-3.447l-12.365-19.017l29.111-29.111l19.011,12.365l3.446-2.026
		c9.312-5.492,19.385-9.641,29.935-12.345l3.931-1.006l4.433-22.114h41.035l4.426,22.121l3.93,1.007
		c10.629,2.724,20.787,6.924,30.176,12.493l3.49,2.071l18.771-12.513l29.021,29.026l-12.506,18.772l2.064,3.491
		c5.561,9.396,9.77,19.546,12.494,30.174l1.006,3.931l22.127,4.42v41.042l-22.127,4.428l-1.006,3.928
		c-2.725,10.629-6.924,20.78-12.494,30.176l-2.064,3.491L310.336,332.94z"/>
	<rect x="193.547" y="129.017" width="12.906" height="12.905"/>
	
		<rect x="111.415" y="163.036" transform="matrix(-0.7071 0.7071 -0.7071 -0.7071 321.0616 205.9845)" width="12.906" height="12.905"/>
	<rect x="77.391" y="245.172" width="12.907" height="12.907"/>
	
		<rect x="111.419" y="327.293" transform="matrix(-0.7071 0.7071 -0.7071 -0.7071 437.2188 486.3844)" width="12.906" height="12.906"/>
	<rect x="193.547" y="361.328" width="12.906" height="12.906"/>
	
		<rect x="275.679" y="327.288" transform="matrix(-0.7071 0.7071 -0.7071 -0.7071 717.6218 370.2113)" width="12.905" height="12.907"/>
	<rect x="309.703" y="245.172" width="12.906" height="12.907"/>
	
		<rect x="275.683" y="163.045" transform="matrix(-0.707 0.7072 -0.7072 -0.707 601.4785 89.8168)" width="12.903" height="12.906"/>
	<path d="M200,167.735c-46.256,0-83.891,37.634-83.891,83.89s37.635,83.891,83.891,83.891c46.255,0,83.89-37.635,83.89-83.891
		S246.256,167.735,200,167.735z M200,322.608c-39.139,0-70.985-31.844-70.985-70.983c0-39.138,31.847-70.984,70.985-70.984
		s70.984,31.846,70.984,70.984C270.984,290.764,239.139,322.608,200,322.608z"/>
	<path d="M200,206.453c-24.902,0-45.172,20.264-45.172,45.172c0,24.91,20.27,45.172,45.172,45.172
		c24.902,0,45.171-20.262,45.171-45.172C245.172,226.717,224.902,206.453,200,206.453z M200,283.891
		c-17.791,0-32.265-14.474-32.265-32.266c0-17.791,14.474-32.266,32.265-32.266c17.792,0,32.265,14.475,32.265,32.266
		C232.266,269.417,217.791,283.891,200,283.891z"/>
	<rect x="348.422" y="335.516" width="12.906" height="12.908"/>
	<rect x="348.422" y="361.328" width="12.906" height="12.906"/>
	<rect x="361.328" y="348.423" width="12.906" height="12.905"/>
	<rect x="335.516" y="348.423" width="12.906" height="12.905"/>
	<rect x="12.86" y="348.423" width="12.907" height="12.905"/>
	<rect x="12.86" y="374.234" width="12.907" height="12.906"/>
	<rect x="25.767" y="361.328" width="12.906" height="12.906"/>
	<rect x="-0.046" y="361.328" width="12.906" height="12.906"/>
	<rect x="374.234" y="129.017" width="12.906" height="12.905"/>
	<rect x="374.234" y="154.829" width="12.906" height="12.906"/>
	<rect x="387.141" y="141.922" width="12.906" height="12.907"/>
	<rect x="361.328" y="141.922" width="12.906" height="12.907"/>
	<rect x="25.767" y="141.922" width="12.906" height="12.907"/>
	<rect x="25.767" y="167.735" width="12.906" height="12.906"/>
	<rect x="38.673" y="154.829" width="12.905" height="12.906"/>
	<rect x="12.86" y="154.829" width="12.907" height="12.906"/>
	<path d="M58.032,116.109c19.352,0,37.505-9.802,48.237-25.812h187.47c10.73,16.011,28.885,25.812,48.236,25.812
		c13.32,0,25.885-4.445,36.32-12.854l2.398-1.936V77.391h-28.277l-9.68-19.359l9.68-19.359h28.27V14.745l-2.4-1.937
		c-10.434-8.409-22.998-12.855-36.318-12.855c-19.354,0-37.504,9.803-48.236,25.812H106.269C95.537,9.756,77.384-0.046,58.032-0.046
		c-13.32,0-25.884,4.446-36.318,12.854l-2.401,1.937v23.928H47.59l9.68,19.359l-9.68,19.359H19.313v23.928l2.401,1.936
		C32.148,111.664,44.713,116.109,58.032,116.109z M32.219,90.297h23.347l16.132-32.265L55.567,25.766H32.219v-4.724
		c7.608-5.363,16.468-8.182,25.813-8.182c16.029,0,31.007,8.66,39.08,22.592l1.864,3.22h202.055l1.863-3.22
		c8.066-13.933,23.045-22.592,39.074-22.592c9.344,0,18.203,2.82,25.813,8.182v4.724h-23.346l-16.135,32.266l16.135,32.265h23.346
		v4.724c-7.609,5.363-16.469,8.183-25.813,8.183c-16.029,0-31.008-8.66-39.08-22.593l-1.865-3.22H98.977l-1.864,3.22
		c-8.073,13.933-23.051,22.593-39.08,22.593c-9.344,0-18.205-2.82-25.812-8.183L32.219,90.297L32.219,90.297z"/>
</g>
</svg>
