<?xml version="1.0" encoding="utf-8"?>
<!-- Generator: Adobe Illustrator 16.0.0, SVG Export Plug-In . SVG Version: 6.00 Build 0)  -->
<!DOCTYPE svg PUBLIC "-//W3C//DTD SVG 1.1//EN" "http://www.w3.org/Graphics/SVG/1.1/DTD/svg11.dtd">
<svg version="1.1" id="Layer_1" xmlns="http://www.w3.org/2000/svg" xmlns:xlink="http://www.w3.org/1999/xlink" x="0px" y="0px"
	 width="314.113px" height="81.361px" viewBox="50.828 50 314.113 81.361" enable-background="new 50.828 50 314.113 81.361"
	 xml:space="preserve">
<path fill="#4A6DFF" d="M163.1,78.547c2.343,2.343,2.343,6.142,0,8.485l-42.571,42.571c-2.343,2.344-6.142,2.344-8.485,0
	l-26.791-26.789c-2.343-2.344-2.343-6.143,0-8.486l42.572-42.571c2.343-2.343,6.142-2.343,8.485,0L163.1,78.547z"/>
<path fill="#2EB9FF" d="M130.432,78.547c2.343,2.343,2.343,6.142,0,8.485l-42.571,42.571c-2.343,2.344-6.142,2.344-8.485,0
	l-26.79-26.789c-2.343-2.344-2.343-6.143,0-8.486l42.571-42.571c2.343-2.343,6.142-2.343,8.485,0L130.432,78.547z"/>
<path fill="#FFFFFF" d="M210.078,93.678c2.261,0.421,4.12,1.552,5.577,3.392c1.456,1.84,2.185,3.948,2.185,6.325
	c0,2.146-0.537,4.043-1.609,5.691c-1.035,1.609-2.549,2.875-4.543,3.795c-1.992,0.92-4.351,1.38-7.071,1.38H187.31V74.129h16.558
	c2.722,0,5.06,0.44,7.015,1.322c1.993,0.881,3.488,2.108,4.484,3.68c1.035,1.571,1.553,3.354,1.553,5.347
	c0,2.338-0.633,4.293-1.898,5.864C213.796,91.914,212.148,93.025,210.078,93.678z M195.359,90.688h7.359
	c1.917,0,3.393-0.422,4.428-1.265c1.034-0.881,1.552-2.127,1.552-3.737c0-1.61-0.519-2.856-1.552-3.737
	c-1.035-0.882-2.511-1.322-4.428-1.322h-7.359V90.688z M203.466,107.706c1.955,0,3.469-0.46,4.542-1.38
	c1.112-0.92,1.667-2.223,1.667-3.909c0-1.726-0.575-3.067-1.725-4.025c-1.149-0.997-2.702-1.495-4.657-1.495h-7.934v10.81H203.466z"
	/>
<path fill="#FFFFFF" d="M236.1,114.777c-3.066,0-5.826-0.67-8.279-2.012c-2.453-1.38-4.389-3.315-5.807-5.807
	c-1.381-2.492-2.07-5.367-2.07-8.625s0.709-6.133,2.127-8.624c1.457-2.491,3.431-4.408,5.922-5.75c2.492-1.38,5.271-2.07,8.337-2.07
	s5.845,0.69,8.337,2.07c2.491,1.341,4.445,3.258,5.864,5.75c1.456,2.491,2.185,5.366,2.185,8.624s-0.747,6.133-2.242,8.625
	c-1.457,2.491-3.449,4.427-5.979,5.807C242.002,114.107,239.204,114.777,236.1,114.777z M236.1,107.764
	c1.457,0,2.816-0.345,4.082-1.035c1.303-0.729,2.338-1.802,3.104-3.22s1.149-3.143,1.149-5.175c0-3.027-0.805-5.347-2.414-6.957
	c-1.571-1.648-3.508-2.472-5.808-2.472s-4.235,0.824-5.807,2.472c-1.533,1.61-2.3,3.929-2.3,6.957s0.748,5.367,2.242,7.016
	C231.883,106.959,233.799,107.764,236.1,107.764z"/>
<path fill="#FFFFFF" d="M264.369,87.353c1.035-1.687,2.377-3.009,4.025-3.967c1.687-0.958,3.603-1.438,5.75-1.438V90.4h-2.129
	c-2.529,0-4.445,0.594-5.748,1.782c-1.266,1.189-1.898,3.259-1.898,6.21v15.869h-8.049V82.408h8.049V87.353z"/>
<path fill="#FFFFFF" d="M275.196,98.219c0-3.219,0.632-6.074,1.896-8.566c1.304-2.491,3.066-4.408,5.29-5.75
	c2.223-1.341,4.695-2.012,7.416-2.012c2.07,0,4.044,0.46,5.924,1.38c1.877,0.882,3.372,2.07,4.483,3.564V71.714h8.165v42.547h-8.165
	v-4.715c-0.996,1.572-2.396,2.836-4.197,3.795c-1.802,0.958-3.891,1.437-6.267,1.437c-2.684,0-5.137-0.689-7.359-2.069
	c-2.224-1.38-3.986-3.315-5.29-5.808C275.828,104.371,275.196,101.477,275.196,98.219z M300.264,98.334
	c0-1.955-0.384-3.622-1.149-5.002c-0.767-1.418-1.802-2.491-3.105-3.22c-1.303-0.767-2.702-1.15-4.196-1.15
	c-1.496,0-2.875,0.364-4.141,1.093c-1.265,0.728-2.3,1.801-3.105,3.22c-0.766,1.379-1.149,3.027-1.149,4.943
	c0,1.917,0.384,3.604,1.149,5.061c0.806,1.418,1.841,2.511,3.105,3.277c1.303,0.767,2.684,1.149,4.141,1.149
	c1.494,0,2.894-0.364,4.196-1.092c1.304-0.767,2.339-1.841,3.105-3.22C299.88,101.977,300.264,100.289,300.264,98.334z"/>
<path fill="#FFFFFF" d="M343.543,97.645c0,1.15-0.077,2.185-0.23,3.104h-23.285c0.191,2.3,0.996,4.101,2.414,5.405
	c1.418,1.303,3.162,1.955,5.232,1.955c2.99,0,5.117-1.284,6.383-3.854h8.682c-0.92,3.067-2.684,5.598-5.29,7.59
	c-2.606,1.955-5.808,2.932-9.603,2.932c-3.065,0-5.826-0.67-8.279-2.012c-2.414-1.38-4.312-3.315-5.691-5.807
	c-1.342-2.492-2.012-5.367-2.012-8.625c0-3.296,0.67-6.189,2.012-8.682c1.341-2.491,3.22-4.408,5.634-5.75
	c2.415-1.341,5.194-2.012,8.337-2.012c3.028,0,5.731,0.651,8.107,1.955c2.415,1.303,4.273,3.163,5.577,5.577
	C342.872,91.799,343.543,94.539,343.543,97.645z M335.206,95.345c-0.039-2.069-0.786-3.718-2.243-4.945
	c-1.456-1.265-3.238-1.897-5.347-1.897c-1.993,0-3.679,0.613-5.06,1.84c-1.342,1.189-2.166,2.856-2.473,5.002H335.206z"/>
<path fill="#FFFFFF" d="M355.167,87.353c1.035-1.687,2.377-3.009,4.024-3.967c1.688-0.958,3.604-1.438,5.75-1.438V90.4h-2.127
	c-2.529,0-4.446,0.594-5.75,1.782c-1.265,1.189-1.897,3.259-1.897,6.21v15.869h-8.049V82.408h8.049V87.353z"/>
</svg>
